<svg width="1139" height="1138" viewBox="0 0 1139 1138" fill="none" xmlns="http://www.w3.org/2000/svg">
<path d="M851.45 560.029C851.45 558.346 851.45 556.663 850.609 557.058C841.335 561.414 832.019 603.073 823.413 630.524C822.356 633.897 821.717 636.478 823.808 637.779C829.971 641.612 838.675 638.238 844.183 635.701C851.107 632.511 854.842 625.513 856.117 618.309C857.521 610.376 855.709 603.405 853.172 597.897C851.736 594.78 848.951 591.547 841.76 589.813C823.24 585.347 807.284 589.762 799.66 594.837C780.11 607.848 776.684 628.777 772.834 638.646C772.4 638.263 772.4 634.897 769.034 633.163C765.668 631.429 758.936 631.429 752 631.429" stroke="#3AC65C" stroke-width="58" stroke-linecap="round"/>
<path d="M287 775.91C296.282 775.91 309.95 778.434 313.316 781.418C320.928 788.165 359.803 778.46 406.111 778.039C434.266 777.783 456.014 767.444 471.837 758.098C474.72 756.395 474.834 753.011 474.846 750.448C474.859 747.885 474.017 745.361 471.901 743.64C467.206 739.821 459.584 739.368 453.222 738.514C450.253 738.115 447.701 739.343 445.139 741.88C439.135 747.824 437.45 758.85 439.133 769.038C439.886 773.591 444.182 775.859 448.441 777.58C457.391 781.198 479.781 780.168 509.909 777.631C532.774 775.706 557.989 755.663 584.739 728.926C612.843 700.835 615.084 684.135 619.738 684.938C634.014 687.403 638.824 719.682 649.037 738.387C652.214 744.205 649.152 743.627 645.327 741.51C622.528 728.895 602.436 701.22 588.424 683.383C582.936 676.398 580.302 673.961 579.422 696.222C578.542 718.484 579.384 765.608 580.659 792.829C582.214 826.037 587.034 836.218 590.846 843.434C592.568 846.693 595.5 848.126 598.904 848.993C606.328 850.884 615.058 849.019 623.537 846.481C642.296 840.868 651.6 818.495 655.897 806.128C656.876 803.309 655.068 799.778 650.006 798.044C622.652 788.673 602.436 810.692 590.91 821.772C588.502 824.087 587.085 826.859 587.901 829.001C588.717 831.143 592.083 832.826 595.5 833.272C602.237 834.152 609.958 829.486 618.016 823.136C627 816.057 630.384 800.645 633.355 781.163C637.067 756.821 632.985 726.771 624.519 695.394C616.192 664.532 597.336 640.02 580.799 619.658C554.751 587.586 528.486 582.976 512.306 582.53C508.852 582.435 506.352 583.792 503.789 588.013C501.226 592.233 498.702 599.806 497.822 604.97C496.942 610.134 497.784 612.659 501.162 614.801C509.631 620.17 519.867 620.36 526.229 619.939C529.248 619.739 531.75 618.677 533.892 616.981C538.357 613.445 540.292 605.952 540.305 595.79C540.322 581.853 528.46 566.886 515.748 552.466C488.148 521.156 449.41 520.909 439.643 522.592C435.479 523.31 434.084 527.641 433.217 531.9C432.35 536.158 432.35 541.207 433.192 542.546C434.033 543.885 435.716 541.36 435.321 538.377C434.926 535.393 432.401 532.027 429.839 530.293C425.387 527.281 419.626 527.718 414.539 527.705C411.845 527.698 409.451 531.058 408.151 533.621C403.144 543.487 412.766 559.924 436.494 593.878C454.662 619.874 487.482 619.493 506.237 616.981C515.624 615.724 521.575 605.111 526.242 592.832C543.411 547.657 532.668 488.728 526.305 471.235C525.045 467.771 521.652 466.543 518.668 466.097C515.685 465.651 512.319 466.492 508.481 474.078C497.953 494.89 493.576 525.015 489.33 561.416C483.351 612.681 488.425 655.932 495.195 679.685C501.436 701.582 519.816 715.5 537.194 726.108C569.151 745.616 597.999 740.21 617.162 734.294C634.518 728.936 628.701 695.279 625.743 676.944C625.097 672.94 622.785 669.728 620.656 667.573C616.765 663.636 608.352 663.71 599.44 664.551C595.576 665.393 593.052 667.076 590.91 669.205C588.768 671.334 587.085 673.859 585.351 676.46" stroke="#3AC65C" stroke-width="58" stroke-linecap="round"/>
<path d="M464.059 148.51C464.059 149.178 464.059 149.847 463.948 164.006C463.836 178.165 463.612 205.794 463.274 221.587C462.77 245.077 461.58 249.101 460.676 250.914C460.537 251.192 460.225 249.587 459.998 241.326C459.771 233.065 459.548 217.691 460.103 204.312C460.659 190.933 462 180.015 462.803 173.945C463.606 167.875 463.829 166.983 464.737 164.715" stroke="#3AC65C" stroke-width="10" stroke-linecap="round"/>
<path d="M432.899 328.788C432.452 328.788 430.657 328.788 428.51 328.342C427.791 328.193 428.374 327.005 429.052 326.212C430.445 324.58 434.674 322.502 434.833 321.475C436.752 309.108 412.584 327.66 411.233 327.998C407.865 328.839 403.785 324.075 400.289 320.594C392.189 312.529 390.033 303.86 387.405 299.089C384.759 294.286 380.97 287.614 379.391 284.576C377.2 280.357 376.228 277.041 373.302 266.95C370.392 256.918 370.579 246.009 369.461 233.464C368.736 225.33 366.108 213.788 364.956 207.485C363.439 199.181 363.127 192.452 362.565 188.907C361.313 181.014 366.501 207.671 369.545 216.992C373.058 227.743 376.445 236.266 377.346 239.75C378.799 245.369 380.956 251.572 383.436 259.54C387.376 272.204 389.762 275.879 391.009 279.374C392.077 282.367 393.38 285.778 394.958 290.734C395.631 292.846 396.767 294.346 397.779 295.582C403.042 302.003 421.356 296.162 425.885 295.031C428.942 294.268 431.531 292.111 434.691 289.417C441.972 283.21 445.065 271.234 447.572 263.652C449.037 259.219 449.157 252.302 449.719 247.113C450.885 236.354 451.189 230.007 451.751 224.267C452.291 218.76 452.544 213.356 453.668 202.462C454.348 195.872 454.122 191.061 454.461 188.144C455.681 177.639 456.608 161.393 457.17 156.623C457.329 155.28 457.733 153.696 458.857 152.011C461.224 148.465 465.401 148.065 469.127 148.281C470.954 148.387 472.398 157.22 476.781 179.38C479.833 194.812 483.623 218.92 486.031 232.208C488.439 245.496 489.11 247.278 489.791 248.085C490.471 248.892 491.142 248.669 491.599 247.886C492.057 247.103 492.28 245.766 495.748 234.939C499.217 224.112 505.923 203.836 510.719 190.16C517.827 169.889 521.408 162.696 522.309 161.238C524.854 157.118 529.74 152.129 533.48 149.084C537.538 145.779 541.039 144.918 544.657 144.348C548.273 143.777 552.772 143.338 561.463 144C564.526 144.233 563.184 149.624 563.522 156.103C564.303 171.028 563.414 181.588 563.075 183.492C562.028 189.379 562.283 199.299 561.72 209.788C560.998 223.263 562.276 234.017 563.627 237.275C566.107 243.253 571.075 248.642 574.574 252.811C576.838 255.509 578.533 257.663 579.885 258.449C582.638 260.052 598.943 260.593 607.438 257.794C611.416 256.484 608.563 250.033 610.144 242.964C613.088 229.325 613.311 224.821 613.65 221.347C613.765 219.21 613.765 216.314 613.765 213.329" stroke="#3AC65C" stroke-width="58" stroke-linecap="round"/>
<path d="M807.501 29C807.277 31.0121 805.482 36.8458 796.632 51.9331C789.484 64.1186 775.487 84.6227 756.95 107.887C738.413 131.151 715.388 156.329 701.515 172.196C687.642 188.063 683.618 193.856 674.727 209.095C665.836 224.335 652.2 248.844 644.617 262.25C635.915 277.216 634.317 279.714 633.304 281.287C632.738 281.969 632.068 282.415 630.699 282.199" stroke="#3AC65C" stroke-width="58" stroke-linecap="round"/>
<path d="M743.826 180.919C743.826 181.365 743.826 181.811 743.826 192.067C743.826 202.323 743.826 222.377 743.602 234.378C743.231 254.308 742.024 258.324 741.008 265.177C740.669 267.102 740.222 268.884 739.991 270.248C739.761 271.612 739.761 272.503 739.084 273.421" stroke="#3AC65C" stroke-width="58" stroke-linecap="round"/>
<path d="M140.804 60.5576C141.035 60.5576 141.265 60.5576 156.246 76.2906C171.228 92.0235 200.953 123.489 231.935 161.174C262.917 198.859 294.255 241.808 311.551 266.001C328.847 290.194 331.151 294.328 332.568 297.032C333.986 299.736 334.447 300.884 334.915 301.82C335.382 302.756 335.843 303.445 337.016 304.851" stroke="#3AC65C" stroke-width="58" stroke-linecap="round"/>
<path d="M134.519 52.9016C134.519 53.1313 134.519 53.361 134.865 70.2458C135.211 87.1306 135.902 120.664 137.986 146.551C140.071 172.439 143.527 189.664 148.764 207.611C154.001 225.557 160.914 243.701 181.642 281.873C202.37 320.045 236.703 377.694 257.847 411.756C278.99 445.818 285.903 454.546 290.04 459.501C296.586 467.342 299.994 468.173 303.14 468.643C303.765 468.736 303.96 467.728 303.503 466.799C301.243 462.208 297.466 460.072 295.012 457.399C293.898 456.186 290.952 454.045 275.481 442.992C262.252 433.541 237.43 417.24 209.405 393.907C181.38 370.574 150.733 340.946 129.646 319.596C108.558 298.246 97.9584 286.073 89.6176 277.276C81.2769 268.479 75.5162 263.426 67.8248 255.655C60.1334 247.884 50.6859 237.549 45.243 231.765C38.7992 224.918 36.5391 223.427 35.1426 223.187C33.0561 222.828 37.2024 231.264 44.2689 242.584C48.6649 249.627 55.2526 258.957 68.5999 280.46C81.9472 301.963 101.994 335.266 119.58 360.576C137.166 385.886 151.683 402.193 160.429 411.742C169.174 421.291 171.709 423.588 176.241 428.101C180.772 432.615 187.224 439.276 195.268 445.442" stroke="#3AC65C" stroke-width="58" stroke-linecap="round"/>
<path d="M230.707 407.648C231.375 402.301 243.421 379.559 256.985 363.627C271.627 346.43 295.451 328.303 302.223 324.58C307.935 321.44 296.868 338.998 291.463 347.413C286.057 357.18 283.344 363.233 283.01 367.259C282.676 369.287 282.008 371.285 281.32 371.325" stroke="#3AC65C" stroke-width="58" stroke-linecap="round"/>
<path d="M875.756 113.952C875.756 114.138 875.756 114.324 874.172 117.764C872.588 121.203 869.419 127.892 847.656 163.664C825.894 199.436 785.633 264.09 764.613 297.675C743.593 331.26 743.034 331.817 741.893 332.391" stroke="#3AC65C" stroke-width="58" stroke-linecap="round"/>
<path d="M660.702 234.335C661.338 231.473 664.536 224.443 669.035 219.147C672.653 214.889 678.333 209.712 687.162 201.396C689.246 199.434 690.857 198.189 699.624 190.089C708.392 181.988 724.288 167.094 733.59 158.629C742.892 150.164 745.118 148.58 747.377 147.763C751.663 146.215 755.109 147.264 757.031 148.061C759.083 148.912 761.843 153.948 765.369 163.359C769.575 174.582 769.57 188.807 769.093 203.019C768.646 216.35 766.679 224.712 766.521 228.544C766.017 240.689 766.988 259.245 771.776 275.493C774.918 286.154 781.015 301.248 784.44 309.877C789.973 323.816 793.636 330.653 797.808 338.647C805.592 353.564 811.306 356.274 814.678 360.754C819.231 366.803 819.341 371.639 821.904 376.435C826.403 385.726 831.519 393.38 836.837 399.175C837.338 399.516 836.702 398.566 836.047 395.665" stroke="#3AC65C" stroke-width="58" stroke-linecap="round"/>
<path d="M831.23 416.792C831.23 416.158 836.953 411.712 846.736 404.836C852.842 400.545 862.946 396.021 879.753 388.996C888.827 385.204 899.422 381.972 907.211 379.7C915.001 377.429 919.77 376.479 930.175 375.989C940.58 375.499 956.477 375.499 967.845 376.291C985.688 377.535 996.893 380.934 1006.18 382.37C1014.91 383.719 1023.23 385.736 1029.97 387.013C1043.27 389.532 1033.88 423.495 1036.27 431.163C1038.67 438.874 1040.6 442.701 1041.42 446.23C1041.87 448.167 1036.78 447.522 1033.26 447.839C1029.01 448.221 1014.73 455.463 995.467 464.903C986.535 469.281 981.873 470.876 968.322 479.293C957.172 486.219 937.921 499.436 927.453 506.287C914.23 514.942 910.251 517.931 895.356 535.001C892.161 538.662 891.618 539.692 892.88 539.231C894.142 538.77 897.322 536.868 907.544 528.442C917.766 520.015 934.934 505.121 944.573 496.973C958.417 485.271 969.56 479.25 980.365 474.905C986.665 472.371 992.104 469.935 996.107 468.341C1000.63 466.542 1015.76 459.42 1036.46 451.099C1048.6 446.219 1052.8 446.561 1055.21 447.354C1060.73 449.164 1048.99 457.106 1030.57 471.63C1021.79 478.56 1018.79 484.628 1015.9 489.593C1011.56 497.043 1011.08 501.28 1009.15 505.759C1007.56 509.577 1005.94 512.813 1004.98 513.619C1004.65 513.475 1004.65 512.208 1004.65 510.902" stroke="#3AC65C" stroke-width="58" stroke-linecap="round"/>
<path d="M608.099 442.56C608.099 443.46 607.648 445.724 597.255 459.704C587.877 472.319 567.898 494.387 550.445 517.007C532.992 539.627 518.091 561.681 504.544 584.069C490.998 606.457 479.258 628.511 470.049 648.423C460.84 668.336 454.518 685.439 449.681 701.226C444.844 717.013 441.684 730.965 439.604 743.329C437.524 755.692 436.621 766.044 438.865 775.203C441.109 784.361 446.527 792.012 453.609 794.604C460.69 797.195 469.269 794.495 480.462 787.253C491.655 780.01 505.201 768.308 518.953 753.953C532.705 739.599 546.251 722.946 557.519 707.166C568.787 691.386 577.367 676.983 584.044 664.613C595.885 642.676 602.147 624.487 606.02 609.969C609.361 597.441 608.113 588.522 604.706 583.53C601.17 578.349 592.186 577.134 581.951 577.127C571.114 577.12 559.36 585.712 546.169 598.847C538.838 606.146 532.075 616.481 525.193 628.334C518.31 640.186 511.988 653.688 505.796 670.546C499.605 687.403 493.735 707.207 492.743 716.733C491.751 726.26 495.815 724.91 504.681 717.463C513.548 710.016 527.094 696.514 556.199 655.127C585.303 613.74 629.555 544.878 655.512 501.752C681.469 458.626 687.791 443.324 691.047 434.54C694.304 425.757 694.304 423.956 692.498 424.379C686.404 425.806 675.681 440.187 654.342 474.093C639.628 497.472 621.263 535.904 607.196 566.632C593.13 597.36 585.002 619.864 579.912 635.508C574.822 651.151 573.015 659.253 574.117 663.201C575.218 667.149 579.282 666.699 584.311 664.442C589.34 662.185 595.21 658.134 605.233 647.946C615.256 637.758 629.254 621.555 638.271 610.508C651.385 594.441 657.332 582.194 660.534 572.196C661.671 568.644 659.22 567.6 656.483 567.811C649.963 568.315 640.994 576.615 629.849 590.206C616.696 606.246 609.044 625.688 603.577 641.57C595.511 665.006 597.604 678.033 600.095 681.668C603.446 686.56 615.789 680.365 628.303 671.759C641.931 662.386 650.928 647.21 659.35 633.605C667.421 620.567 671.029 607.193 673.533 593.377C676.74 575.68 677.87 558.107 677.891 562.049C677.949 573.271 672.493 602.897 670.173 631.027C667.854 659.157 667.403 684.812 667.622 701.628C667.935 725.67 672.383 736.666 678.069 742.122C680.597 744.548 684.206 743.977 688.092 740.376C691.978 736.775 696.493 729.574 700.851 719.113C705.209 708.652 709.273 695.15 712.722 675.142C716.17 655.134 718.879 629.029 720.275 611.531C723.368 572.752 717.579 560.331 714.624 556.696C713.289 555.055 711.216 554.861 708.931 557.105C702.678 563.245 698.436 579.302 693.428 604.882C690.384 620.433 689.323 641.713 688.619 656.661C687.533 679.687 691.088 692.108 696.09 699.146C698.438 702.451 701.994 703.933 706.331 702.61C710.669 701.287 716.088 696.787 721.363 686.817C726.637 676.847 731.605 661.544 735.292 640.158C738.98 618.773 741.238 591.768 742.175 565.704C743.112 539.641 742.661 515.336 741.525 496.74C739.642 465.909 734.464 447.17 729.689 435.372C727.421 429.769 724.462 425.375 721.937 423.056C719.413 420.738 717.155 420.738 714.863 423.888C712.571 427.039 710.313 433.34 706.441 451.439C702.569 469.537 697.15 499.243 693.907 526.022C690.664 552.802 689.761 575.756 689.747 588.481C689.734 601.206 690.637 603.006 692.457 600.783C694.277 598.56 696.986 592.259 699.059 564.709C701.132 537.158 702.487 488.55 702.281 459.683C702.021 423.111 696.151 409.431 691.827 400.116C690.129 396.458 687.955 395.751 685.444 398.888C682.933 402.025 679.772 409.227 676.338 422.163C672.903 435.099 669.291 453.553 666.075 488.713C662.86 523.874 660.15 575.183 659.206 608.816C658.262 642.45 659.165 656.852 660.759 669.448C663.681 692.531 669.647 707.111 675.558 712.573C678.125 714.946 682.372 712.635 686.491 704.288C690.609 695.941 695.125 680.638 699.709 639.674C704.293 598.71 708.808 532.548 714.295 531.096C719.782 529.643 726.104 594.905 730.038 631.9C734.697 675.717 738.077 686.203 740.807 690.083C741.612 691.228 743.536 687.212 747.169 624.828C750.802 562.445 756.672 440.923 768.501 433.906C780.331 426.889 797.941 538.058 806.787 594.653C815.633 651.247 815.182 649.896 810.885 628.947C806.589 607.998 798.461 567.491 797.66 566.877C796.86 566.263 803.633 606.771 801.93 600.408C800.226 594.046 789.84 539.586 784.265 513.556C778.689 487.527 778.237 491.578 778.682 547.674C779.126 603.77 780.481 711.789 781.179 765.185C781.877 818.581 781.877 814.08 773.523 765.853C765.17 717.627 748.462 625.81 739.63 580.086C730.797 534.362 730.346 537.513 731.242 548.588C733.673 578.632 737.625 602.093 739.445 609.355C740.257 612.595 741.265 614.818 739.698 572.544C738.131 530.271 734.067 443.405 728.813 432.638C723.559 421.87 717.237 489.832 713.303 525.518C709.369 561.203 708.015 562.554 695.125 531.294C682.235 500.034 657.852 436.122 642.807 398.247C627.762 360.373 622.795 350.471 617.979 342.669C613.162 334.868 608.647 329.467 603.837 327.81C599.027 326.153 594.06 328.403 587.889 335.639C581.718 342.874 574.493 355.026 554.29 411.92C534.087 468.814 501.124 570.082 481.208 578.593C461.292 587.104 455.422 499.788 449.237 495.09C443.052 490.391 436.73 570.955 433.022 611.333C429.314 651.71 428.411 649.46 427.268 645.375C424.508 635.509 421.569 593.405 418.381 580.932C412.542 558.088 416.096 688.631 415.856 733.113C415.617 777.596 416.068 779.847 416.753 780.331C417.437 780.815 418.34 779.465 419.257 745.013C420.173 710.562 421.077 643.05 421.316 606.246C421.555 569.441 421.104 565.391 419.968 563.079C418.832 560.767 417.026 560.317 415.193 562.335C413.359 564.354 411.553 568.855 406.784 590.077C402.016 611.299 394.339 649.105 390.159 669.257C385.979 689.408 385.527 690.758 384.843 663.774C384.159 636.79 383.256 581.43 383.242 543.459C383.229 505.489 384.132 486.586 378.275 499.802C372.419 513.018 359.776 558.926 352.133 590.677C344.491 622.428 342.234 638.631 345.36 627.399C348.487 616.168 357.066 577.011 365.906 536.667" stroke="#3AC65C" stroke-width="58" stroke-linecap="round"/>
<path d="M353.591 544.851C353.591 543.5 353.591 542.15 352.914 541.68C352.236 541.209 350.882 541.659 349.507 543.691C345.997 548.877 343.123 563.386 339.702 581.546C338.241 589.304 338.539 594.305 346.441 549.372C354.344 504.439 370.148 409.472 365.194 400.157C360.241 390.842 334.051 470.056 307.068 551.67" stroke="#3AC65C" stroke-width="58" stroke-linecap="round"/>
<path d="M120.431 758.421C123.141 755.271 128.577 749.84 135.163 744.64C142.223 739.065 146.748 731.755 151.966 726.534C166.932 711.558 184.427 684.694 190.107 676.758C195.912 668.648 203.934 662.97 210.316 657.96C211.685 657.05 213.033 656.154 214.402 655.244C215.771 654.334 217.12 653.438 218.509 652.515" stroke="#3AC65C" stroke-width="58" stroke-linecap="round"/>
<path d="M73.3755 573.039C73.6336 573.039 74.67 573.039 79.3944 573.746C83.2376 574.322 89.9265 575.869 95.8359 577.498C106.773 580.514 112.477 583.17 114.037 583.883C117.1 585.283 119.775 586.16 125.489 588.037C128.051 588.879 131.961 589.653 138.989 591.982C146.017 594.311 156.084 598.042 163.722 601.379C171.36 604.715 176.264 607.546 179.436 609.518C185.929 613.556 187.567 615.131 190.3 617.016C193.175 618.644 196.03 619.942 199.1 621.371C199.949 621.762 200.981 622.148 202.436 622.936" stroke="#3AC65C" stroke-width="58" stroke-linecap="round"/>
<path d="M245.033 521.759C245.033 523.321 244.554 525.483 243.887 528.137C243.167 531 241.892 534.044 240.987 535.731C239.595 538.326 238.751 540.068 237.242 542.237C234.658 545.951 232.345 548.507 230.832 550.315C229.051 552.443 226.664 554.169 224.366 556.04C221.307 558.531 216.036 561.4 212.523 563.209C209.565 564.733 206.115 565.984 203.338 566.887C201.244 567.567 198.501 568.515 193.026 569.596C189.483 570.296 184.318 570.916 179.692 571.345C171.134 572.137 165.967 571.896 163.497 571.477C157.975 570.539 155.691 568.53 149.777 561.978C146.876 558.765 145.89 556.237 144.68 554.246C143.401 552.141 142.749 547.343 142.078 544.542C141.71 543.008 141.653 537.949 143.275 529.509C143.824 526.647 145.614 523.039 147.491 519.224C149.369 515.41 151.643 511.592 154.251 507.895C156.859 504.198 159.732 500.738 162.229 498.06C166.57 493.408 170.893 490.676 174.396 488.929C175.84 488.209 176.701 488.018 180.125 487.776C183.549 487.534 189.534 487.295 194.294 487.47C199.053 487.646 202.404 488.242 205.388 488.967C208.371 489.692 210.885 490.527 214.155 491.793C217.425 493.058 221.376 494.729 224.488 496.186C232.706 500.033 234.746 501.504 236.623 502.533C237.049 502.715 237.409 502.835 237.833 503.015C238.257 503.196 238.736 503.435 239.955 504.404" stroke="#3AC65C" stroke-width="58" stroke-linecap="round"/>
<path d="M141.46 76.3528L142.83 77.7185" stroke="#3AC65C" stroke-width="58" stroke-linecap="round"/>
<path d="M188.73 449.868C185.113 450.551 174.604 449.65 167.407 446.242C157.877 441.73 152.435 433.726 149.01 430.646C145.343 427.35 140.35 422.363 136.106 418.242C134.297 416.485 133.02 413.917 127.015 406.914C121.951 401.008 112.646 390.447 104.254 380.034C95.8618 369.621 88.6275 359.706 84.4485 353.697C79.1268 346.044 77.5293 342.676 75.4809 339.162C68.891 327.86 68.3905 317.41 67.4759 313.996C66.5596 310.575 65.6502 307.85 64.8486 304.327C64.7322 300.599 64.9582 297.601 65.4138 296.239C65.6433 295.552 65.8694 294.876 66.1023 294.863" stroke="#3AC65C" stroke-width="58" stroke-linecap="round"/>
<path d="M152.421 449.868C150.599 452.818 146.968 458.254 142.957 463.283C141.599 464.985 139.871 466.701 132.849 474.379C126.799 480.994 115.427 492.874 108.474 500.829C98.7432 511.961 94.6696 521.062 90.9051 529.136C88.8889 533.461 87.7983 535.668 85.8733 540.868C78.6186 560.463 76.1589 563.207 74.8984 566.508C73.7519 569.511 72.0485 572.534 70.2194 578.448C68.5801 583.747 66.568 589.606 64.8518 595.973C63.0244 602.754 60.8545 612.372 60.5085 615.673C60.1546 619.051 59.2514 623.516 58.6828 626.827C58.1446 629.962 56.059 632.625 54.5758 635.704C52.9493 639.081 51.9485 643.318 50.5784 647.422C49.7854 649.797 50.1194 652.434 49.7769 656.62C49.1229 664.611 51.6951 676.279 54.8909 686.856C57.3836 695.106 58.3334 701.128 62.9987 714.757C65.8006 722.943 69.0616 726.174 78.9643 739.91C82.6928 745.081 91.1483 753.433 97.0331 758.053C100.099 760.46 103.987 761.464 107.535 762.833C109.919 763.963 112.221 764.885 113.93 765.113C114.735 765.117 115.414 764.892 116.112 762.611" stroke="#3AC65C" stroke-width="58" stroke-linecap="round"/>
<path d="M206.542 738.711V742.125" stroke="#3AC65C" stroke-width="58" stroke-linecap="round"/>
<path d="M255.867 587.803C255.867 588.253 255.867 596.598 256.093 610.016C256.221 617.604 260.402 625.755 266.78 636.097C271.91 644.416 281.619 649.682 289.836 654.575C293.431 656.715 295.135 657.446 296.731 658.808C298.085 659.964 299.471 663.346 301.636 670.031C307.636 688.557 304.959 697.044 305.305 702.271C305.877 706.836 306.103 709.567 306.445 713.975C306.562 717.482 306.562 723.566 306.562 727.786" stroke="#3AC65C" stroke-width="58" stroke-linecap="round"/>
<path d="M148.31 758.514C148.988 758.514 149.666 758.514 157.928 758.514C166.19 758.514 182.016 758.514 193.446 758.063C211.469 757.352 219.77 755.782 224.654 754.994C240.923 752.367 246.714 747.138 251.389 745.321C256.166 743.465 265.622 741.682 275.778 739.862C280.734 738.943 283.029 738.486 285.081 738.257C286.002 738.254 286.681 738.479 286.694 738.711" stroke="#3AC65C" stroke-width="58" stroke-linecap="round"/>
<path d="M223.668 725.054C223.668 724.604 223.668 713.33 223.781 696.037C223.841 686.788 226.395 683.196 233.119 674.217C236.757 669.358 241.672 663.407 246.145 658.719C248.728 656.012 251.975 655.404 253.91 655.291C256.095 655.164 259.723 655.172 265.413 657.094C273.069 659.681 279.131 667.204 284.598 675.371C290.065 685.34 293.991 695.644 295.703 703.715C296.285 707.054 296.285 708.857 296.285 710.032" stroke="#3AC65C" stroke-width="58" stroke-linecap="round"/>
<path d="M239.425 770.122C239.425 770.573 239.199 771.706 234.9 780.621C230.996 788.717 222.915 803.732 216.917 814.213C210.919 824.695 207.076 830.103 202.835 835.255C194.442 845.452 186.476 851.592 181.571 854.095C177.073 856.39 171.863 857.745 167.506 858.322C163.836 858.808 158.847 857.99 154.606 855.717C148.363 852.368 146.269 849.113 141.933 843.664C138.929 839.89 137.13 835.47 135.301 832.158C133.326 828.583 130.526 819.806 128.334 813.384C126.968 809.381 125.703 800.454 127.18 795.398C128.243 791.756 133.225 791.072 136.199 790.037C139.319 788.951 134.842 796.507 133.928 799.587C132.903 803.035 130.978 812.609 129.588 819.84C128.832 823.771 127.758 827.235 127.077 830.427C126.245 834.321 125.251 838.83 124.45 846.222C122.912 860.398 127.293 865.024 130.824 870.702C136.256 879.435 144.173 884.594 149.879 888.124C160.716 894.828 165.191 894.618 176.46 897.35C188.152 900.183 194.402 895.779 198.992 894.29C203.227 892.917 207.213 890.767 209.957 888.831C210.687 888.316 211.323 887.585 211.786 887.575C214.13 887.523 217.914 899.548 221.038 905.998C222.528 909.075 225.477 912.591 231.067 917.029C234.094 919.432 236.219 921.031 237.928 920.805C241.573 920.325 251.674 916.496 268.26 915.68C274.171 915.39 277.775 916.933 280.283 916.595C281.472 916.435 282.338 915.581 282.917 914.445C283.496 913.308 283.722 911.73 283.725 910.467C283.729 909.204 283.502 908.302 283.27 907.374" stroke="#3AC65C" stroke-width="58" stroke-linecap="round"/>
<path d="M239.425 911.471C239.877 912.83 248.482 921.864 254.6 927.395C257.92 930.396 261.334 931.041 265.55 932.178C273.843 934.414 278.913 934.687 283.705 935.254C290.975 936.114 301.013 936.053 309.96 936.62C317.045 937.069 331.115 937.419 341.364 936.852C346.97 936.542 352.887 935.152 362.7 933.329C369.857 931.999 378.892 929.47 392.025 926.507C408.624 921.037 412.735 919.214 416.146 917.855C418.201 916.947 420.914 915.595 424.394 914.202" stroke="#3AC65C" stroke-width="58" stroke-linecap="round"/>
<path d="M229.149 878.694C229.601 878.694 240.233 878.694 256.894 878.582C264.971 878.527 269.315 877.11 274.439 874.73C280.243 872.035 284.167 868.233 289.73 865.515C299.844 860.574 311.309 857.082 319.52 855.262C322.968 854.498 325.018 854.344 332.396 853.101C339.774 851.859 352.434 849.605 359.634 848.444C370.441 846.702 374.137 846.15 377.566 845.013C382.81 843.274 385.784 840.919 388.421 839.212C393.105 836.181 384.687 821.643 378.881 806.876C373.726 793.764 367.095 786.08 364.015 781.987C361.045 778.038 356.819 776.281 352.821 774.226C347.501 771.49 341.528 773.304 323.987 779.996C312.516 784.372 302.013 789.911 297.899 792.192C293.943 794.385 291.504 799.006 288.082 804.8C283.864 811.942 281.906 819.717 280.766 824.036C279.988 826.981 278.714 832.671 276.888 840.288C275.774 844.934 273.021 856.29 268.458 871.873C264.581 885.115 260.443 893.471 258.158 897.005C257.272 898.375 256.559 899.63 255.418 899.975C254.956 899.869 254.729 899.193 254.5 898.394C254.27 897.595 254.044 896.694 253.811 895.083" stroke="#3AC65C" stroke-width="58" stroke-linecap="round"/>
<path d="M251.071 929.225C251.297 929.225 251.523 929.225 284.533 929.225C317.543 929.225 383.331 929.225 417.334 928.887C451.338 928.549 451.564 927.873 451.68 926.623C451.964 923.582 451.344 921.037 450.32 919.9C449.829 919.355 449.07 919.214 448.382 919.211C446.997 919.204 446.316 930.256 446.203 947.091C446.102 962.182 446.083 974.285 447.333 975.422C450.246 978.071 454.742 977.474 458.973 979.065C464.284 981.063 467.087 983.156 470.054 986.457C472.657 989.354 473.712 992.722 475.757 993.746C479.158 994.095 483.515 993.419 487.393 992.282C489.01 991.821 489.914 991.596 492.216 990.681" stroke="#3AC65C" stroke-width="58" stroke-linecap="round"/>
<path d="M493.586 1002.29C495.395 1004.1 504.493 1007.74 510.127 1008.55C514.353 1009.15 522.524 1010.02 529.755 1011.05C540.515 1012.58 546.09 1009.12 550.649 1008.55C561.324 1007.22 566.396 1011.6 572.805 1016.38C576.342 1019.02 576.48 1023.67 576.254 1026.96C575.747 1034.35 572.15 1039.6 571.568 1042.23C570.893 1045.27 578.289 1043.71 586.951 1043.83C592.419 1043.91 597.704 1040.08 600.447 1038.6C603.213 1037.11 608.418 1037.11 612.659 1036.55C618.223 1035.8 621.448 1035.75 624.651 1035.07C628.989 1034.15 633.546 1033.25 640.507 1031.55C646.84 1030 652.495 1026.88 656.507 1025.4C659.717 1024.2 662.107 1023.23 663.248 1022.44C663.71 1021.87 663.936 1020.97 664.166 1020.17C664.395 1019.37 664.621 1018.69 664.169 1017.31" stroke="#3AC65C" stroke-width="58" stroke-linecap="round"/>
<path d="M685.406 1010.48C684.502 1009.58 683.132 1008.22 681.197 1006.06C678.816 1003.41 671.54 995.296 658.671 983.483C652.376 977.704 645.576 973.473 627.052 962.476C608.528 951.478 578.234 934.127 562.289 925.076C545.734 915.679 544.289 915.342 542.922 914.099C538.54 910.115 538.582 904.669 538.003 898.404C537.673 894.833 537.883 891.682 538.911 888.947C540.005 886.034 541.761 883.488 546.988 880.524C559.316 873.534 565.272 880.743 568.475 881.422C572.813 882.342 577.823 884.594 581.265 887.673C585.851 891.776 588.345 900.518 590.062 907.916C590.57 910.107 591.093 911.464 591.322 912.15C591.325 912.16 591.099 911.484 590.644 911.249C589.637 910.728 587.229 917.104 584.379 926.428C582.714 931.876 578.11 940.983 572.411 953.943C566.996 966.255 563.929 968.816 558.802 978.352C556.541 982.556 555.024 988.591 554.671 1007.57C554.548 1014.19 557.065 1018.2 560.48 1024.91C562.766 1029.4 565.053 1032.32 568.472 1035.39C569.616 1036.42 570.972 1037.77 572.01 1038.69C573.048 1039.61 573.726 1040.06 576.48 1040.53" stroke="#3AC65C" stroke-width="58" stroke-linecap="round"/>
<path d="M671.704 994.095C669.211 993.419 663.278 990.244 656.088 983.422C652.847 980.346 650.481 977.72 644.894 969.885C640.461 963.667 634.724 956.552 629.706 948.037C626.884 943.248 625.353 939.713 623.756 935.503C621.461 929.449 621.242 925.606 620.441 921.502C619.521 916.791 619.639 904.97 624.527 889.323C626.149 884.13 629.901 882.122 632.076 879.387C634.342 876.539 636.074 874.829 636.988 874.71C638.439 874.52 636.766 878.906 637.331 881.634C638.331 886.463 645.192 887.107 653.625 891.648C663.185 896.795 666.662 898.032 674.058 901.32C691.96 909.279 694.983 912.823 697.727 914.199C700.758 915.719 705.478 916.701 710.27 918.289C721.358 921.962 726.017 925.565 730.836 929.665C733.946 932.311 734.498 937.856 735.868 941.161C737.573 945.274 733.827 948.781 731.884 951.748C729.798 954.936 727.209 957.89 723.784 960.851C718.423 965.483 712.37 971.315 706.551 975.982C701.618 979.938 695.243 984.521 692.267 987.71C691.602 988.422 690.9 988.851 690.551 989.533C688.987 992.589 694.065 998.834 696.929 1003.87C699.631 1008.62 700.93 1012.97 703.663 1018.2C705.399 1021.53 708.232 1023.44 709.719 1026.86C710.652 1029 712.35 1030.28 713.031 1031.53C713.382 1032.17 714.165 1032.55 714.515 1032C717.715 1026.9 712.589 1019.16 711.898 1013.92C711.159 1008.33 709.164 1003.45 708.13 998.328C707.345 994.444 708.691 991.37 710.058 990.121C712.444 987.939 715.987 987.499 720.101 985.907C723.253 984.688 727.62 982.049 731.634 980.554C733.87 979.721 736.094 979.762 737.009 979.076C737.543 978.675 736.334 981.114 737.231 982.138C740.21 985.538 745.685 982.712 746.939 983.391C749.855 984.972 754.557 989.97 758.811 992.043C760.398 992.816 762.579 992.729 764.518 992.391C767.563 991.86 770.108 989.998 775.013 989.431C783.526 988.447 790.879 991.582 803.964 1000.19C809.774 1004.72 818.364 1011.93 824.486 1016.66C830.607 1021.39 833.998 1023.42 838.862 1026.87" stroke="#3AC65C" stroke-width="58" stroke-linecap="round"/>
<path d="M753.913 851.38C753.913 856.119 753.461 866.157 752.776 873.648C751.655 885.903 749.584 891.627 748.436 897.681C747.631 901.926 746.158 905.079 744.898 909.064C742.167 917.695 744.542 930.331 746.371 934.107C750.127 941.862 762.34 950.379 770.437 955.835C773.491 957.892 776.055 958.355 780.477 959.826C789.933 962.973 800.457 964.05 810.127 963.486C822.827 962.746 830.861 960.41 834.265 958.717C847.428 952.17 850.947 946.309 853.581 942.444C857.408 936.83 859.168 931.983 863.055 924.472C865.122 920.479 864.662 916.496 864.782 912.85C864.953 907.642 861.017 901.474 859.534 898.507C857.646 894.729 855.537 889.183 853.828 885.878C851.507 881.39 847.796 876.454 840.373 868.704C837.01 865.193 831.354 863.685 827.117 862.197C820.727 859.952 812.843 858.441 794.747 858.321C787.431 858.273 775.233 863.863 765.131 869.117C758.874 872.372 757.12 875.949 754.835 878.684C754.372 879.37 754.146 880.046 753.352 881.07C752.557 882.095 751.2 883.447 749.803 885.523" stroke="#3AC65C" stroke-width="58" stroke-linecap="round"/>
<path d="M810.774 822.018C818.707 822.018 836.519 823.37 844.651 825.763C857.298 829.486 865.511 832.015 871.731 834.19C875.266 835.425 878.582 835.443 882.802 836.242C888.09 837.243 899.97 837.04 909.4 836.474C912.585 836.282 917.159 835.456 923.872 832.851C932.536 829.49 938.409 824.538 940.92 821.697C943.972 818.245 944.582 812.035 946.754 799.419C948.018 792.072 947.788 785.185 946.086 778.794C944.148 771.52 934.148 764.263 923.317 754.147C915.736 747.065 908.321 742.603 900.237 738.4C891.859 734.044 882.069 732.572 873.859 731.548C864.287 730.354 858.29 730.517 847.977 732.658C839.389 734.44 824.325 739.08 815.278 741.849C799.441 746.696 795.716 750.988 788.543 756.892C783.265 761.236 779.274 765.779 774.732 771.214C766.924 780.558 759.188 789.658 755.537 796.025C752.421 801.459 751.639 805.384 749.241 812.998C747.805 817.555 747.062 821.089 746.494 826.204C746.603 834.302 747.967 837.477 750.135 840.67C750.933 841.581 752.063 842.708 753.228 843.869" stroke="#3AC65C" stroke-width="58" stroke-linecap="round"/>
<path d="M883.392 730.517C884.07 732.101 888.16 738.438 893.308 745.857C896.401 750.313 898.683 753.037 906.534 760.644C913.621 767.51 918.769 769.876 923.678 772.955C928.769 776.15 932.923 780.801 937.382 783.881C941.512 786.733 944.802 789.46 952.44 794.796C956.64 797.73 959.421 799.02 964.665 802.543C970.212 806.27 977.452 809.262 981.23 811.54C984.121 813.282 987.509 814.274 992.64 814.394C996.776 814.49 999.84 812.007 1006 807.811C1011.21 804.257 1011.95 797.231 1012.87 794.031C1013.26 792.65 1013.56 783.41 1013.44 770.098C1013.38 763.254 1012.19 747.957 1011.62 737.932C1011.41 734.208 1010.82 729.629 1009.46 725.764C1007.61 720.556 996.949 718.239 990.623 716.184C985.225 714.43 982.056 712.544 979.199 710.154C974.383 706.125 966.08 701.851 959.575 698.095C953.687 694.696 948.035 695.692 944.154 695.125C940.116 694.535 936.608 694.784 934.108 694.442C930.285 693.92 926.339 694.101 905.064 694.435C885.366 694.745 847.618 696.347 827.377 697.156C807.137 697.966 805.554 698.191 801.687 699.096C791.681 701.437 781.131 705.006 773.832 708.188C769.136 710.235 760.833 716.805 749.879 725.337C740.692 731.411 734.293 735.515 729.498 737.226C728.347 737.571 727.442 737.796 725.141 737.345" stroke="#3AC65C" stroke-width="58" stroke-linecap="round"/>
<path d="M888.872 673.841C889.776 673.841 899.737 673.841 914.915 674.066C925.705 674.227 932.004 676.791 937.379 678.047C939.835 678.622 942.068 679.98 947.172 682.581C957.768 687.983 965.819 691.138 970.015 692.831C979.168 696.525 988.173 700.916 993.763 702.848C1000.67 705.235 1009.87 706.836 1024.55 708.434C1030.34 709.064 1038.29 708.666 1046.54 707.765C1054.8 706.863 1063.17 705.061 1070.3 703.118C1083.22 699.6 1091.4 695.48 1095.73 692.527C1102.95 687.606 1106.93 673.227 1108.66 664.875C1110.12 657.84 1106.51 652.687 1104.11 649.952C1101.4 646.863 1090.37 641.106 1082.76 638.111C1072.05 633.892 1055.59 627.872 1052.61 626.616C1049.74 625.403 1046.69 623.775 1043.03 622.519C1038.82 621.073 1031.19 618.995 1023.75 618.305C1014 617.403 1008.1 616.714 994.654 616.37C990.278 616.257 982.562 615.799 970.145 616.25C964.046 616.471 958.407 617.602 952.104 619.418C945.801 621.235 939.019 623.939 932.586 627.022C920.047 633.032 913.315 637.869 911.38 639.573C905.793 643.55 896.23 652.168 892.078 656.872C891.393 657.671 890.489 658.573 888.872 658.136" stroke="#3AC65C" stroke-width="58" stroke-linecap="round"/>
<path d="M888.872 632.187C889.324 632.187 891.592 631.737 901.005 629.364C908.398 627.5 921.043 624.062 931.069 621.757C948.003 617.864 956.681 616.714 959.979 615.806C967.919 613.62 974.013 613.532 985.303 607.298C993.917 602.541 998.696 596.236 1003.58 592.275C1018.8 579.936 1023.35 575.307 1027.24 570.974C1031.34 566.415 1037.29 561.868 1043.44 555.736C1053.2 546.021 1056.71 529.774 1057.06 527.501C1057.21 526.534 1055.37 526.128 1045.52 525.896C1035.66 525.664 1017.35 525.664 1006.45 525.889C995.545 526.114 992.606 526.565 986.005 528.825C979.404 531.086 969.231 535.142 961.391 539.259C947.762 546.416 940.958 553.865 936.745 558.744C928.751 568.001 926.565 572.534 922.341 580.715C920.995 583.323 920.845 585.064 920.728 585.751C920.583 586.608 922.434 583.938 924.027 583.48C929.999 581.765 937.499 584.839 940.242 585.751C940.931 585.979 941.609 586.205 941.619 586.546C941.722 589.944 932.97 590.295 921.968 596.396C913.343 601.179 898.984 610.159 881.244 622.348C863.504 634.536 842.931 649.859 831.994 657.978C821.057 666.097 820.379 666.548 820.143 666.33C819.319 665.568 821.496 662.478 837.338 643.072C851.845 625.301 880.309 592.118 893.171 577.191C906.033 562.264 902.642 566.771 893.661 576.529C884.68 586.287 870.211 601.159 861.175 610.06C852.139 618.961 848.974 621.439 844.343 624.676" stroke="#3AC65C" stroke-width="58" stroke-linecap="round"/>
<path d="M888.872 673.841C889.776 673.841 899.737 673.841 914.915 674.066C925.705 674.227 932.004 676.791 937.379 678.047C939.835 678.622 942.068 679.98 947.172 682.581C957.768 687.983 965.819 691.138 970.015 692.831C979.168 696.525 988.173 700.916 993.763 702.848C1000.67 705.235 1009.87 706.836 1024.55 708.434C1030.34 709.064 1038.29 708.666 1046.54 707.765C1054.8 706.863 1063.17 705.061 1070.3 703.118C1083.22 699.6 1091.4 695.48 1095.73 692.527C1102.95 687.606 1106.93 673.227 1108.66 664.875C1110.12 657.84 1106.51 652.687 1104.11 649.952C1101.4 646.863 1090.37 641.106 1082.76 638.111C1072.05 633.892 1055.59 627.872 1052.61 626.616C1049.74 625.403 1046.69 623.775 1043.03 622.519C1038.82 621.073 1031.19 618.995 1023.75 618.305C1014 617.403 1008.1 616.714 994.654 616.37C990.278 616.257 982.562 615.799 970.145 616.25C964.046 616.471 958.407 617.602 952.104 619.418C945.801 621.235 939.019 623.939 932.586 627.022C920.047 633.032 913.315 637.869 911.38 639.573C905.793 643.55 896.23 652.168 892.078 656.872C891.393 657.671 890.489 658.573 888.872 658.136" stroke="#3AC65C" stroke-width="58" stroke-linecap="round"/>
<path d="M888.872 632.187C889.324 632.187 891.592 631.737 901.005 629.364C908.398 627.5 921.043 624.062 931.069 621.757C948.003 617.864 956.681 616.714 959.979 615.806C967.919 613.62 974.013 613.532 985.303 607.298C993.917 602.541 998.696 596.236 1003.58 592.275C1018.8 579.936 1023.35 575.307 1027.24 570.974C1031.34 566.415 1037.29 561.868 1043.44 555.736C1053.2 546.021 1056.71 529.774 1057.06 527.501C1057.21 526.534 1055.37 526.128 1045.52 525.896C1035.66 525.664 1017.35 525.664 1006.45 525.889C995.545 526.114 992.606 526.565 986.005 528.825C979.404 531.086 969.231 535.142 961.391 539.259C947.762 546.416 940.958 553.865 936.745 558.744C928.751 568.001 926.565 572.534 922.341 580.715C920.995 583.323 920.845 585.064 920.728 585.751C920.583 586.608 922.434 583.938 924.027 583.48C929.999 581.765 937.499 584.839 940.242 585.751C940.931 585.979 941.609 586.205 941.619 586.546C941.722 589.944 932.97 590.295 921.968 596.396C913.343 601.179 898.984 610.159 881.244 622.348C863.504 634.536 842.931 649.859 831.994 657.978C821.057 666.097 820.379 666.548 820.143 666.33C819.319 665.568 821.496 662.478 837.338 643.072C851.845 625.301 880.309 592.118 893.171 577.191C906.033 562.264 902.642 566.771 893.661 576.529C884.68 586.287 870.211 601.159 861.175 610.06C852.139 618.961 848.974 621.439 844.343 624.676" stroke="#3AC65C" stroke-width="58" stroke-linecap="round"/>
<path d="M476.915 856.186C476.915 870.841 480.828 906.298 488.254 921.632C494.923 935.406 501.578 947.722 517.363 963.973C521.053 967.771 524.285 969.409 525.797 968.464C539.434 959.935 504.661 921.366 494.242 900.58C480.334 872.836 482.844 835.74 483.333 803.209C483.532 789.955 495.65 843.304 501.104 859.082C502.485 863.077 504.543 866.941 505.061 866.513C515.471 857.916 500.63 837.572 495.22 815.397C490.583 796.391 490.759 785.304 490.255 782.822C487.764 770.555 501.578 807.848 509.004 820.686C512.206 826.222 514.443 832.519 517.408 834.026C532.8 841.851 510.531 803.061 503.624 788.775C496.885 774.837 487.824 753.896 485.808 727.717C484.791 714.513 482.844 776.115 486.772 807.346C488.647 822.259 497.636 833.494 503.55 840.866C509 847.66 515.422 851.252 523.781 852.729C529.145 853.677 537.031 853.232 542.53 850.794C560.553 842.805 560.864 810.093 563.369 756.895C563.981 743.9 566.823 737.054 568.305 736.02C596.688 716.216 583.571 805.839 590.522 816.786C600.661 832.752 613.155 758.003 632.408 711.23C639.325 694.427 642.857 692.734 642.902 707.817C643.148 791.436 634.024 808.793 631.074 824.128C628.094 839.623 621.218 853.173 609.865 864.031C606.975 866.794 602.483 867 599.489 866.04C596.495 865.08 594.539 862.155 595.488 859.185C603.848 833.013 659.576 825.694 677.94 818.293C690.536 813.216 697.223 797.152 710.058 773.057C714.644 764.448 718.981 758.712 719.01 755.742C719.221 734.657 684.476 781.256 673.582 796.546C669.486 802.296 668.617 808.882 667.624 814.777C665.399 827.985 679.437 841.354 686.862 855.64C690.027 861.727 693.28 867 699.194 870.443C702.073 872.118 705.108 872.91 707.109 871.949C712.074 862.125 714.06 828.885 716.52 805.026C717.024 801.082 717.024 796.206 717.024 791.184" stroke="#3AC65C" stroke-width="58" stroke-linecap="round"/>
<path d="M574.737 548.9C583.541 541.07 607.286 527.272 616.208 516.443C620.719 510.969 624.123 504.61 624.642 500.665C626.518 486.4 601.446 505.555 596.51 504.107C593.49 503.221 593.531 495.834 593.027 459.669C592.523 423.504 592.523 357.201 592.034 321.095C591.396 274.024 585.616 265.281 584.134 262.799C571.9 242.313 616.119 336.932 628.554 362.682C638.248 382.754 646.829 398.153 657.204 409.986C659.759 412.901 661.651 415.881 664.126 416.413C690.788 422.142 670.603 329.427 669.106 295.404C668.688 285.89 666.631 273.229 666.142 259.919C665.768 249.733 687.203 309.336 711.007 337.538C728.321 358.052 739.731 374.545 743.184 376.54C756.988 384.511 739.79 341.187 729.415 304.298C720.887 273.978 712.104 242.678 708.146 232.765C707.779 231.845 706.175 235.646 706.16 239.103C706.056 263.466 731.786 293.735 750.551 324.715C762.932 345.156 769.374 361.692 776.281 374.53C784.587 389.97 804.886 406.012 824.169 440.922C829.655 450.853 831.624 457.276 833.61 457.32C859.929 457.908 821.783 415.024 818.329 408.095C805.135 381.623 820.716 510.076 825.207 540.494C825.515 542.582 829.609 541.041 832.099 537.613C844.431 520.638 848.402 504.639 872.058 481.031C886.264 466.854 900.752 464.219 915.085 460.275C918.576 459.314 921.502 458.31 921.547 459.27C922.188 473.128 893.993 480.884 878.134 492.717C874.753 495.24 873.184 498.612 873.643 498.656C885.81 499.83 896.78 486.852 909.66 482.937C924.437 478.446 939.229 457.424 948.24 440.124C964.646 408.63 859.341 431.688 856.851 433.653C847.835 440.768 883.915 433.668 901.73 431.216C923.334 428.242 949.07 427.759 966.471 425.306C980.752 423.294 992.646 421.849 999.582 421.362C1002.78 421.137 955.532 418.895 896.765 419.382C870.239 419.602 859.37 421.849 813.794 428.187C773.967 433.725 700.721 447.2 625.264 454.705C549.808 462.21 474.485 464.16 432.747 464.677C391.01 465.194 385.14 464.219 380.649 462.742C376.158 461.265 373.224 459.315 371.712 456.36C362.625 438.601 388.935 407.194 424.403 345.264C439.058 319.675 447.243 308.626 457.558 296.867C464.668 288.762 476.678 277.307 461.694 301.018C446.709 324.729 404.645 384.207 381.509 416.309C355.98 451.732 349.48 456.301 344.544 456.818C323.139 459.06 342.513 410.09 346.471 398.256C347.464 395.287 348.442 392.362 347.479 391.342C340.211 383.652 323.838 412.867 311.937 426.754C302.17 438.15 314.827 384.561 340.942 338.306C354.648 314.031 367.206 310.576 371.164 309.572C385.045 306.048 359.351 339.06 348.012 360.702C345.426 365.639 344.529 368.606 344.514 371.576C344.5 374.545 345.478 377.47 347.938 379.465C366.89 394.827 402.778 382.464 408.203 379.524C414.019 376.371 417.599 369.67 420.089 366.715C422.966 363.302 406.809 367.661 397.931 371.103C391.08 373.759 432.984 355.074 508.011 321.139C538.369 307.408 551.734 297.93 559.279 291.947C566.823 285.964 567.801 283.039 564.392 280.069C545.387 263.515 523.455 264.306 507.107 259.357C503.641 258.308 500.689 257.392 499.666 255.428C498.644 253.463 499.622 250.538 502.571 249.031C516.653 241.836 531.192 253.404 542.056 259.786C546.628 262.471 547.051 267.143 537.772 275.977C528.494 284.812 508.93 298.462 480.754 314.757C452.578 331.052 416.384 349.578 402.141 357.659C395.617 361.36 458.596 359.801 540.099 360.776C568.794 361.12 571.714 363.701 570.291 366.169C565.766 374.015 507.062 382.375 429.027 394.194C396.122 399.177 388.016 399.187 386.015 400.177C345.576 420.181 512.368 400.162 530.732 402.142C555.872 404.852 467.133 417.89 451.748 431.644C451.185 434.643 455.098 435.618 466.896 436.12C478.694 436.623 498.258 436.623 518.416 436.623" stroke="#3AC65C" stroke-width="58" stroke-linecap="round"/>
<path d="M512.487 486.852C512.487 487.827 512.487 488.802 469.934 489.305C427.382 489.807 342.276 489.807 296.967 489.319C251.657 488.832 248.723 487.857 246.722 485.892C235.145 474.523 239.8 451.426 236.332 449.919C234.939 449.314 237.755 457.187 259.305 489.94C280.856 522.692 321.941 582.17 344.085 614.76C373.91 658.656 380.071 670.012 378.619 669.082C345.676 647.973 330.834 604.212 314.412 592.733C312.339 591.284 309.965 596.116 308.958 599.573C304.954 613.306 312.87 629.563 316.828 648.31C317.674 652.318 318.799 655.209 317.836 655.254C316.872 655.298 313.938 652.373 313.404 652.816C303.768 660.82 326.684 677.842 351.821 713.239C359.947 724.681 362.285 732.06 361.811 736.98C361.575 739.433 356.446 739.949 354.919 738.989C351.59 736.895 359.292 728.19 367.177 721.793C380.885 710.672 403.697 712.412 421.038 713.357C424.223 713.531 423.558 719.208 422.09 721.704C411.73 727.156 402.837 730.11 399.369 730.125C398.835 729.165 400.792 726.24 402.808 723.226" stroke="#3AC65C" stroke-width="58" stroke-linecap="round"/>
<path d="M264.581 802.345C264.581 803.367 264.581 805.427 265.094 808.134C265.554 810.564 271.535 810.864 278.26 810.481C283.066 810.207 287.091 807.263 292.638 803.665C300.41 798.626 310.105 789.233 319.425 780.59C323.829 776.507 325.179 774.472 327.114 773.054C329.486 771.316 332.941 771.366 335.657 771.494C336.84 771.549 337.603 771.877 338.641 773.031C345.202 780.33 343.835 792.757 343.19 799.739C342.929 802.568 342.801 804.916 341.772 806.593C339.264 810.677 327.844 810.322 318.994 817.164C317.454 818.356 317.168 819.368 317.545 820.018C317.922 820.669 319.204 821.18 326.659 820.804C334.115 820.429 347.704 819.151 368.808 815.042C389.911 810.934 418.116 804.033 433.159 800.478C448.201 796.924 449.227 796.924 449.371 797.435C449.515 797.946 448.745 798.968 441.554 805.117C434.363 811.267 420.773 822.512 411.978 830.35C403.182 838.187 399.592 842.277 397.487 844.767C395.381 847.257 394.868 848.023 406.783 848.163C418.699 848.302 443.058 847.791 455.991 847.655C468.924 847.52 469.693 847.775 470.218 848.29C470.742 848.805 470.999 849.572 470.746 850.734C470.134 853.55 461.496 861.143 449.46 870.82C443.616 875.519 440.711 876.175 439.67 876.435C433.602 877.947 463.4 874.371 472.537 875.269C473.892 875.402 474.868 876.168 475.781 876.814C481.503 880.868 477.23 895.762 474.643 902.097C471.044 910.908 462.001 916.92 455.738 920.189C451.98 922.15 448.745 922.388 440.117 924.568C434.397 926.013 423.819 927.515 404.686 928.437C385.552 929.358 358.116 929.358 336.29 930.636C314.464 931.914 299.08 934.47 287.821 935.787C276.562 937.103 269.896 937.103 266.461 936.72C263.027 936.336 263.027 935.57 265.719 933.386C273.423 927.136 280.882 923.426 285.906 921.118C295.099 916.894 302.374 912.328 312.277 907.46C320.227 903.552 333.718 895.948 342.386 891.618C351.053 887.289 354.387 886.267 368.155 881.395C381.923 876.524 406.026 867.834 418.955 863.23C434.968 857.528 439.126 856.047 440.835 855.141C443.884 853.525 429.616 856.287 416.717 860.395C408.837 862.906 398.691 867.571 374.177 882.971C349.662 898.372 311.201 924.696 277.541 951.036C243.882 977.376 216.19 1002.93 191.283 1028.11C166.376 1053.29 145.094 1077.31 132.336 1090.71C116.83 1107 111.264 1108.52 109.325 1108.9C108.42 1109.09 107.643 1109.04 108.785 1108.52C109.927 1108.01 113.004 1106.99 117.794 1103.53C122.584 1100.06 128.995 1094.18 153.707 1068.02C178.42 1041.87 221.24 995.607 258.812 959.509C296.384 923.41 327.409 898.875 361.982 875.757C396.554 852.639 433.734 831.682 455.451 819.863C477.168 808.045 482.296 806 485.579 804.564C490.144 802.36 492.49 801.315 494.429 800.672C495.342 800.285 496.111 799.774 497.681 799.247" stroke="#3AC65C" stroke-width="58" stroke-linecap="round"/>
<path d="M836.239 758.96C835.212 757.952 827.991 747.636 810.631 735.987C806.638 733.307 802.593 734.141 800.484 735.165C792.087 739.242 799.387 755.299 804.056 766.414C812.351 777.031 828.863 788.371 845.515 794.11C850.183 794.638 856.346 794.638 862.696 794.638" stroke="#3AC65C" stroke-width="58" stroke-linecap="round"/>
<path d="M865.808 797.74C865.808 794.141 869.917 778.722 897.081 727.874C903.222 716.38 907.236 711.493 909.601 709.624C925.459 697.093 916.107 775.93 918.713 785.307C919.153 786.891 919.748 788.402 924.121 789.193C928.494 789.984 936.711 789.984 941.458 789.216C946.204 788.448 947.232 786.912 947.761 780.491C948.29 774.069 948.29 762.807 949.317 757.005C950.344 751.204 952.398 751.204 954.484 751.972C964.746 755.75 971.603 765.661 978.092 768.259C981.814 769.75 985.624 771.354 987.188 773.425C990.131 777.32 976.334 768.795 968.809 765.18C961.692 761.762 953.519 760.511 942.897 759.224C931.903 757.891 923.405 759.472 920.557 761.015C919.093 761.809 918.223 763.583 920.518 764.374C938.464 770.558 951.387 768.779 952.951 770.322C955.075 772.419 935.98 779.591 892.63 791.186C863.471 798.986 818.467 805.341 783.125 809.296C747.782 813.252 723.131 813.252 709.405 813.508C693.624 814.276 689.454 815.827 686.084 816.61C684.769 816.37 684.256 814.834 683.727 813.252" stroke="#3AC65C" stroke-width="58" stroke-linecap="round"/>
<path d="M289.994 572.816C278.182 571.265 253.173 573.313 251.617 577.183C248.758 584.292 246.948 592.951 242.808 598.908C240.36 602.43 235.541 603.313 232.693 604.096C231.411 604.449 230.358 602.32 229.829 600.761C229.3 599.202 229.3 597.667 230.07 596.364C230.841 595.061 232.381 594.037 235.525 591.431" stroke="#3AC65C" stroke-width="58" stroke-linecap="round"/>
<path d="M126.587 451.823C119.895 461.58 100.224 484.305 92.1082 493.938C86.1275 501.037 81.4868 507.635 77.5806 516.415C71.1275 530.92 63.87 549.425 58.1274 566.558C53.6918 579.791 52.416 590.345 50.3384 598.9C48.2361 607.556 45.6618 618.794 44.1133 626.046C42.1204 635.379 40.9931 647.708 39.7014 661.933C36.3548 698.786 46.6578 718.536 53.163 729.456C57.6152 736.93 60.1661 743.417 64.5781 751.173C69.2714 759.424 76.2267 766.158 83.2454 771.61C91.1468 777.748 98.5434 782.724 104.776 786.61C106.26 787.535 107.881 787.905 109.445 788.169C111.009 788.433 112.55 788.433 112.316 787.409C110.003 777.265 98.0765 771.401 93.4077 765.188C87.4306 757.235 73.2387 747.667 64.3602 737.53C58.6677 731.031 54.5013 724.865 50.6029 718.396C46.4548 711.513 44.6347 702.652 42.0435 694.105C37.8405 680.241 33.2429 664.958 30.3638 647.623C26.7937 626.127 31.1264 608.525 33.1962 602.08C40.3539 579.791 49.2723 552.682 52.1358 546.47C55.2032 539.815 59.139 534.068 63.0218 526.312C67.4603 517.446 72.6162 510.8 77.0281 504.331C82.4933 496.319 87.6496 489.083 92.8475 481.327C98.7681 472.493 112.487 461.224 121.895 453.646C125 452.351 128.128 450.8 131.232 448.737C132.797 447.697 134.337 446.673 134.368 445.619" stroke="#3AC65C" stroke-width="58" stroke-linecap="round"/>
<ellipse cx="359.516" cy="572.214" rx="15.6265" ry="19.444" transform="rotate(28.5063 359.516 572.214)" fill="#FEFFFE"/>
<ellipse cx="700.495" cy="572.214" rx="15.6265" ry="19.444" transform="rotate(28.5063 700.495 572.214)" fill="#FEFFFE"/>
<path d="M530.747 670.127C542.887 713.409 593.031 712.353 604.643 670.127" stroke="black" stroke-width="20" stroke-linecap="round"/>
<path d="M839 616.288C839 671.675 794.1 716.576 738.712 716.576C683.325 716.576 638.424 671.675 638.424 616.288C638.424 560.9 683.325 516 738.712 516C794.1 516 839 560.9 839 616.288Z" fill="#FFFFFC"/>
<path d="M811.599 616.288C811.599 655.331 779.212 686.983 739.26 686.983C699.309 686.983 666.921 655.331 666.921 616.288C666.921 577.244 699.309 545.593 739.26 545.593C779.212 545.593 811.599 577.244 811.599 616.288Z" fill="#010101"/>
<ellipse cx="702.87" cy="590.805" rx="16.2243" ry="20.1877" transform="rotate(28.5063 702.87 590.805)" fill="#FEFFFE"/>
<path d="M489.576 616.288C489.576 671.675 444.675 716.576 389.288 716.576C333.9 716.576 289 671.675 289 616.288C289 560.9 333.9 516 389.288 516C444.675 516 489.576 560.9 489.576 616.288Z" fill="#FFFFFC"/>
<path d="M459.008 616.288C459.008 655.331 426.621 686.983 386.669 686.983C346.718 686.983 314.33 655.331 314.33 616.288C314.33 577.244 346.718 545.593 386.669 545.593C426.621 545.593 459.008 577.244 459.008 616.288Z" fill="#010101"/>
<ellipse cx="350.279" cy="590.805" rx="16.2243" ry="20.1877" transform="rotate(28.5063 350.279 590.805)" fill="#FEFFFE"/>
<path d="M862.028 556.919C862.028 558.983 863.404 564.511 864.805 567.992C865.733 570.767 866.427 572.845 866.775 574.798C866.893 576.066 866.893 577.895 867.588 581.164" stroke="#3AC65C" stroke-width="58" stroke-linecap="round"/>
</svg>
